%TF.GenerationSoftware,KiCad,Pcbnew,7.0.8*%
%TF.CreationDate,2023-10-16T22:27:31-07:00*%
%TF.ProjectId,Lab2,4c616232-2e6b-4696-9361-645f70636258,rev?*%
%TF.SameCoordinates,Original*%
%TF.FileFunction,Legend,Top*%
%TF.FilePolarity,Positive*%
%FSLAX46Y46*%
G04 Gerber Fmt 4.6, Leading zero omitted, Abs format (unit mm)*
G04 Created by KiCad (PCBNEW 7.0.8) date 2023-10-16 22:27:31*
%MOMM*%
%LPD*%
G01*
G04 APERTURE LIST*
%ADD10C,0.150000*%
%ADD11C,0.120000*%
G04 APERTURE END LIST*
D10*
X29860588Y-17917438D02*
X29765350Y-17869819D01*
X29765350Y-17869819D02*
X29622493Y-17869819D01*
X29622493Y-17869819D02*
X29479636Y-17917438D01*
X29479636Y-17917438D02*
X29384398Y-18012676D01*
X29384398Y-18012676D02*
X29336779Y-18107914D01*
X29336779Y-18107914D02*
X29289160Y-18298390D01*
X29289160Y-18298390D02*
X29289160Y-18441247D01*
X29289160Y-18441247D02*
X29336779Y-18631723D01*
X29336779Y-18631723D02*
X29384398Y-18726961D01*
X29384398Y-18726961D02*
X29479636Y-18822200D01*
X29479636Y-18822200D02*
X29622493Y-18869819D01*
X29622493Y-18869819D02*
X29717731Y-18869819D01*
X29717731Y-18869819D02*
X29860588Y-18822200D01*
X29860588Y-18822200D02*
X29908207Y-18774580D01*
X29908207Y-18774580D02*
X29908207Y-18441247D01*
X29908207Y-18441247D02*
X29717731Y-18441247D01*
X30479636Y-18869819D02*
X30384398Y-18822200D01*
X30384398Y-18822200D02*
X30336779Y-18774580D01*
X30336779Y-18774580D02*
X30289160Y-18679342D01*
X30289160Y-18679342D02*
X30289160Y-18393628D01*
X30289160Y-18393628D02*
X30336779Y-18298390D01*
X30336779Y-18298390D02*
X30384398Y-18250771D01*
X30384398Y-18250771D02*
X30479636Y-18203152D01*
X30479636Y-18203152D02*
X30622493Y-18203152D01*
X30622493Y-18203152D02*
X30717731Y-18250771D01*
X30717731Y-18250771D02*
X30765350Y-18298390D01*
X30765350Y-18298390D02*
X30812969Y-18393628D01*
X30812969Y-18393628D02*
X30812969Y-18679342D01*
X30812969Y-18679342D02*
X30765350Y-18774580D01*
X30765350Y-18774580D02*
X30717731Y-18822200D01*
X30717731Y-18822200D02*
X30622493Y-18869819D01*
X30622493Y-18869819D02*
X30479636Y-18869819D01*
X31241541Y-18869819D02*
X31241541Y-17869819D01*
X31336779Y-18488866D02*
X31622493Y-18869819D01*
X31622493Y-18203152D02*
X31241541Y-18584104D01*
X32479636Y-18203152D02*
X32479636Y-18869819D01*
X32051065Y-18203152D02*
X32051065Y-18726961D01*
X32051065Y-18726961D02*
X32098684Y-18822200D01*
X32098684Y-18822200D02*
X32193922Y-18869819D01*
X32193922Y-18869819D02*
X32336779Y-18869819D01*
X32336779Y-18869819D02*
X32432017Y-18822200D01*
X32432017Y-18822200D02*
X32479636Y-18774580D01*
X33098684Y-18869819D02*
X33003446Y-18822200D01*
X33003446Y-18822200D02*
X32955827Y-18726961D01*
X32955827Y-18726961D02*
X32955827Y-17869819D01*
X34765351Y-17917438D02*
X34670113Y-17869819D01*
X34670113Y-17869819D02*
X34527256Y-17869819D01*
X34527256Y-17869819D02*
X34384399Y-17917438D01*
X34384399Y-17917438D02*
X34289161Y-18012676D01*
X34289161Y-18012676D02*
X34241542Y-18107914D01*
X34241542Y-18107914D02*
X34193923Y-18298390D01*
X34193923Y-18298390D02*
X34193923Y-18441247D01*
X34193923Y-18441247D02*
X34241542Y-18631723D01*
X34241542Y-18631723D02*
X34289161Y-18726961D01*
X34289161Y-18726961D02*
X34384399Y-18822200D01*
X34384399Y-18822200D02*
X34527256Y-18869819D01*
X34527256Y-18869819D02*
X34622494Y-18869819D01*
X34622494Y-18869819D02*
X34765351Y-18822200D01*
X34765351Y-18822200D02*
X34812970Y-18774580D01*
X34812970Y-18774580D02*
X34812970Y-18441247D01*
X34812970Y-18441247D02*
X34622494Y-18441247D01*
X35384399Y-18869819D02*
X35289161Y-18822200D01*
X35289161Y-18822200D02*
X35241542Y-18774580D01*
X35241542Y-18774580D02*
X35193923Y-18679342D01*
X35193923Y-18679342D02*
X35193923Y-18393628D01*
X35193923Y-18393628D02*
X35241542Y-18298390D01*
X35241542Y-18298390D02*
X35289161Y-18250771D01*
X35289161Y-18250771D02*
X35384399Y-18203152D01*
X35384399Y-18203152D02*
X35527256Y-18203152D01*
X35527256Y-18203152D02*
X35622494Y-18250771D01*
X35622494Y-18250771D02*
X35670113Y-18298390D01*
X35670113Y-18298390D02*
X35717732Y-18393628D01*
X35717732Y-18393628D02*
X35717732Y-18679342D01*
X35717732Y-18679342D02*
X35670113Y-18774580D01*
X35670113Y-18774580D02*
X35622494Y-18822200D01*
X35622494Y-18822200D02*
X35527256Y-18869819D01*
X35527256Y-18869819D02*
X35384399Y-18869819D01*
X36146304Y-18203152D02*
X36146304Y-19203152D01*
X36146304Y-18250771D02*
X36241542Y-18203152D01*
X36241542Y-18203152D02*
X36432018Y-18203152D01*
X36432018Y-18203152D02*
X36527256Y-18250771D01*
X36527256Y-18250771D02*
X36574875Y-18298390D01*
X36574875Y-18298390D02*
X36622494Y-18393628D01*
X36622494Y-18393628D02*
X36622494Y-18679342D01*
X36622494Y-18679342D02*
X36574875Y-18774580D01*
X36574875Y-18774580D02*
X36527256Y-18822200D01*
X36527256Y-18822200D02*
X36432018Y-18869819D01*
X36432018Y-18869819D02*
X36241542Y-18869819D01*
X36241542Y-18869819D02*
X36146304Y-18822200D01*
X37479637Y-18869819D02*
X37479637Y-18346009D01*
X37479637Y-18346009D02*
X37432018Y-18250771D01*
X37432018Y-18250771D02*
X37336780Y-18203152D01*
X37336780Y-18203152D02*
X37146304Y-18203152D01*
X37146304Y-18203152D02*
X37051066Y-18250771D01*
X37479637Y-18822200D02*
X37384399Y-18869819D01*
X37384399Y-18869819D02*
X37146304Y-18869819D01*
X37146304Y-18869819D02*
X37051066Y-18822200D01*
X37051066Y-18822200D02*
X37003447Y-18726961D01*
X37003447Y-18726961D02*
X37003447Y-18631723D01*
X37003447Y-18631723D02*
X37051066Y-18536485D01*
X37051066Y-18536485D02*
X37146304Y-18488866D01*
X37146304Y-18488866D02*
X37384399Y-18488866D01*
X37384399Y-18488866D02*
X37479637Y-18441247D01*
X37955828Y-18869819D02*
X37955828Y-17869819D01*
X38051066Y-18488866D02*
X38336780Y-18869819D01*
X38336780Y-18203152D02*
X37955828Y-18584104D01*
X39193923Y-18203152D02*
X39193923Y-18869819D01*
X38765352Y-18203152D02*
X38765352Y-18726961D01*
X38765352Y-18726961D02*
X38812971Y-18822200D01*
X38812971Y-18822200D02*
X38908209Y-18869819D01*
X38908209Y-18869819D02*
X39051066Y-18869819D01*
X39051066Y-18869819D02*
X39146304Y-18822200D01*
X39146304Y-18822200D02*
X39193923Y-18774580D01*
X39670114Y-18869819D02*
X39670114Y-18203152D01*
X39670114Y-18298390D02*
X39717733Y-18250771D01*
X39717733Y-18250771D02*
X39812971Y-18203152D01*
X39812971Y-18203152D02*
X39955828Y-18203152D01*
X39955828Y-18203152D02*
X40051066Y-18250771D01*
X40051066Y-18250771D02*
X40098685Y-18346009D01*
X40098685Y-18346009D02*
X40098685Y-18869819D01*
X40098685Y-18346009D02*
X40146304Y-18250771D01*
X40146304Y-18250771D02*
X40241542Y-18203152D01*
X40241542Y-18203152D02*
X40384399Y-18203152D01*
X40384399Y-18203152D02*
X40479638Y-18250771D01*
X40479638Y-18250771D02*
X40527257Y-18346009D01*
X40527257Y-18346009D02*
X40527257Y-18869819D01*
X41432018Y-18869819D02*
X41432018Y-18346009D01*
X41432018Y-18346009D02*
X41384399Y-18250771D01*
X41384399Y-18250771D02*
X41289161Y-18203152D01*
X41289161Y-18203152D02*
X41098685Y-18203152D01*
X41098685Y-18203152D02*
X41003447Y-18250771D01*
X41432018Y-18822200D02*
X41336780Y-18869819D01*
X41336780Y-18869819D02*
X41098685Y-18869819D01*
X41098685Y-18869819D02*
X41003447Y-18822200D01*
X41003447Y-18822200D02*
X40955828Y-18726961D01*
X40955828Y-18726961D02*
X40955828Y-18631723D01*
X40955828Y-18631723D02*
X41003447Y-18536485D01*
X41003447Y-18536485D02*
X41098685Y-18488866D01*
X41098685Y-18488866D02*
X41336780Y-18488866D01*
X41336780Y-18488866D02*
X41432018Y-18441247D01*
X41908209Y-18869819D02*
X41908209Y-18203152D01*
X41908209Y-18393628D02*
X41955828Y-18298390D01*
X41955828Y-18298390D02*
X42003447Y-18250771D01*
X42003447Y-18250771D02*
X42098685Y-18203152D01*
X42098685Y-18203152D02*
X42193923Y-18203152D01*
X19274405Y-49634819D02*
X19274405Y-48634819D01*
X19274405Y-48634819D02*
X19512500Y-48634819D01*
X19512500Y-48634819D02*
X19655357Y-48682438D01*
X19655357Y-48682438D02*
X19750595Y-48777676D01*
X19750595Y-48777676D02*
X19798214Y-48872914D01*
X19798214Y-48872914D02*
X19845833Y-49063390D01*
X19845833Y-49063390D02*
X19845833Y-49206247D01*
X19845833Y-49206247D02*
X19798214Y-49396723D01*
X19798214Y-49396723D02*
X19750595Y-49491961D01*
X19750595Y-49491961D02*
X19655357Y-49587200D01*
X19655357Y-49587200D02*
X19512500Y-49634819D01*
X19512500Y-49634819D02*
X19274405Y-49634819D01*
X20226786Y-48730057D02*
X20274405Y-48682438D01*
X20274405Y-48682438D02*
X20369643Y-48634819D01*
X20369643Y-48634819D02*
X20607738Y-48634819D01*
X20607738Y-48634819D02*
X20702976Y-48682438D01*
X20702976Y-48682438D02*
X20750595Y-48730057D01*
X20750595Y-48730057D02*
X20798214Y-48825295D01*
X20798214Y-48825295D02*
X20798214Y-48920533D01*
X20798214Y-48920533D02*
X20750595Y-49063390D01*
X20750595Y-49063390D02*
X20179167Y-49634819D01*
X20179167Y-49634819D02*
X20798214Y-49634819D01*
X38713095Y-44459819D02*
X38713095Y-45269342D01*
X38713095Y-45269342D02*
X38760714Y-45364580D01*
X38760714Y-45364580D02*
X38808333Y-45412200D01*
X38808333Y-45412200D02*
X38903571Y-45459819D01*
X38903571Y-45459819D02*
X39094047Y-45459819D01*
X39094047Y-45459819D02*
X39189285Y-45412200D01*
X39189285Y-45412200D02*
X39236904Y-45364580D01*
X39236904Y-45364580D02*
X39284523Y-45269342D01*
X39284523Y-45269342D02*
X39284523Y-44459819D01*
X40284523Y-45459819D02*
X39713095Y-45459819D01*
X39998809Y-45459819D02*
X39998809Y-44459819D01*
X39998809Y-44459819D02*
X39903571Y-44602676D01*
X39903571Y-44602676D02*
X39808333Y-44697914D01*
X39808333Y-44697914D02*
X39713095Y-44745533D01*
X57395833Y-39109580D02*
X57348214Y-39157200D01*
X57348214Y-39157200D02*
X57205357Y-39204819D01*
X57205357Y-39204819D02*
X57110119Y-39204819D01*
X57110119Y-39204819D02*
X56967262Y-39157200D01*
X56967262Y-39157200D02*
X56872024Y-39061961D01*
X56872024Y-39061961D02*
X56824405Y-38966723D01*
X56824405Y-38966723D02*
X56776786Y-38776247D01*
X56776786Y-38776247D02*
X56776786Y-38633390D01*
X56776786Y-38633390D02*
X56824405Y-38442914D01*
X56824405Y-38442914D02*
X56872024Y-38347676D01*
X56872024Y-38347676D02*
X56967262Y-38252438D01*
X56967262Y-38252438D02*
X57110119Y-38204819D01*
X57110119Y-38204819D02*
X57205357Y-38204819D01*
X57205357Y-38204819D02*
X57348214Y-38252438D01*
X57348214Y-38252438D02*
X57395833Y-38300057D01*
X58348214Y-39204819D02*
X57776786Y-39204819D01*
X58062500Y-39204819D02*
X58062500Y-38204819D01*
X58062500Y-38204819D02*
X57967262Y-38347676D01*
X57967262Y-38347676D02*
X57872024Y-38442914D01*
X57872024Y-38442914D02*
X57776786Y-38490533D01*
X50295833Y-47179580D02*
X50248214Y-47227200D01*
X50248214Y-47227200D02*
X50105357Y-47274819D01*
X50105357Y-47274819D02*
X50010119Y-47274819D01*
X50010119Y-47274819D02*
X49867262Y-47227200D01*
X49867262Y-47227200D02*
X49772024Y-47131961D01*
X49772024Y-47131961D02*
X49724405Y-47036723D01*
X49724405Y-47036723D02*
X49676786Y-46846247D01*
X49676786Y-46846247D02*
X49676786Y-46703390D01*
X49676786Y-46703390D02*
X49724405Y-46512914D01*
X49724405Y-46512914D02*
X49772024Y-46417676D01*
X49772024Y-46417676D02*
X49867262Y-46322438D01*
X49867262Y-46322438D02*
X50010119Y-46274819D01*
X50010119Y-46274819D02*
X50105357Y-46274819D01*
X50105357Y-46274819D02*
X50248214Y-46322438D01*
X50248214Y-46322438D02*
X50295833Y-46370057D01*
X50676786Y-46370057D02*
X50724405Y-46322438D01*
X50724405Y-46322438D02*
X50819643Y-46274819D01*
X50819643Y-46274819D02*
X51057738Y-46274819D01*
X51057738Y-46274819D02*
X51152976Y-46322438D01*
X51152976Y-46322438D02*
X51200595Y-46370057D01*
X51200595Y-46370057D02*
X51248214Y-46465295D01*
X51248214Y-46465295D02*
X51248214Y-46560533D01*
X51248214Y-46560533D02*
X51200595Y-46703390D01*
X51200595Y-46703390D02*
X50629167Y-47274819D01*
X50629167Y-47274819D02*
X51248214Y-47274819D01*
X53276666Y-49794819D02*
X52943333Y-49318628D01*
X52705238Y-49794819D02*
X52705238Y-48794819D01*
X52705238Y-48794819D02*
X53086190Y-48794819D01*
X53086190Y-48794819D02*
X53181428Y-48842438D01*
X53181428Y-48842438D02*
X53229047Y-48890057D01*
X53229047Y-48890057D02*
X53276666Y-48985295D01*
X53276666Y-48985295D02*
X53276666Y-49128152D01*
X53276666Y-49128152D02*
X53229047Y-49223390D01*
X53229047Y-49223390D02*
X53181428Y-49271009D01*
X53181428Y-49271009D02*
X53086190Y-49318628D01*
X53086190Y-49318628D02*
X52705238Y-49318628D01*
X53705238Y-49271009D02*
X54038571Y-49271009D01*
X54181428Y-49794819D02*
X53705238Y-49794819D01*
X53705238Y-49794819D02*
X53705238Y-48794819D01*
X53705238Y-48794819D02*
X54181428Y-48794819D01*
X54943333Y-49271009D02*
X54610000Y-49271009D01*
X54610000Y-49794819D02*
X54610000Y-48794819D01*
X54610000Y-48794819D02*
X55086190Y-48794819D01*
X55610000Y-48794819D02*
X55610000Y-49032914D01*
X55371905Y-48937676D02*
X55610000Y-49032914D01*
X55610000Y-49032914D02*
X55848095Y-48937676D01*
X55467143Y-49223390D02*
X55610000Y-49032914D01*
X55610000Y-49032914D02*
X55752857Y-49223390D01*
X56371905Y-48794819D02*
X56371905Y-49032914D01*
X56133810Y-48937676D02*
X56371905Y-49032914D01*
X56371905Y-49032914D02*
X56610000Y-48937676D01*
X56229048Y-49223390D02*
X56371905Y-49032914D01*
X56371905Y-49032914D02*
X56514762Y-49223390D01*
X34164166Y-25714819D02*
X34164166Y-26429104D01*
X34164166Y-26429104D02*
X34116547Y-26571961D01*
X34116547Y-26571961D02*
X34021309Y-26667200D01*
X34021309Y-26667200D02*
X33878452Y-26714819D01*
X33878452Y-26714819D02*
X33783214Y-26714819D01*
X35164166Y-26714819D02*
X34592738Y-26714819D01*
X34878452Y-26714819D02*
X34878452Y-25714819D01*
X34878452Y-25714819D02*
X34783214Y-25857676D01*
X34783214Y-25857676D02*
X34687976Y-25952914D01*
X34687976Y-25952914D02*
X34592738Y-26000533D01*
X19833333Y-41804819D02*
X19500000Y-41328628D01*
X19261905Y-41804819D02*
X19261905Y-40804819D01*
X19261905Y-40804819D02*
X19642857Y-40804819D01*
X19642857Y-40804819D02*
X19738095Y-40852438D01*
X19738095Y-40852438D02*
X19785714Y-40900057D01*
X19785714Y-40900057D02*
X19833333Y-40995295D01*
X19833333Y-40995295D02*
X19833333Y-41138152D01*
X19833333Y-41138152D02*
X19785714Y-41233390D01*
X19785714Y-41233390D02*
X19738095Y-41281009D01*
X19738095Y-41281009D02*
X19642857Y-41328628D01*
X19642857Y-41328628D02*
X19261905Y-41328628D01*
X20690476Y-41138152D02*
X20690476Y-41804819D01*
X20452381Y-40757200D02*
X20214286Y-41471485D01*
X20214286Y-41471485D02*
X20833333Y-41471485D01*
X19833333Y-35804819D02*
X19500000Y-35328628D01*
X19261905Y-35804819D02*
X19261905Y-34804819D01*
X19261905Y-34804819D02*
X19642857Y-34804819D01*
X19642857Y-34804819D02*
X19738095Y-34852438D01*
X19738095Y-34852438D02*
X19785714Y-34900057D01*
X19785714Y-34900057D02*
X19833333Y-34995295D01*
X19833333Y-34995295D02*
X19833333Y-35138152D01*
X19833333Y-35138152D02*
X19785714Y-35233390D01*
X19785714Y-35233390D02*
X19738095Y-35281009D01*
X19738095Y-35281009D02*
X19642857Y-35328628D01*
X19642857Y-35328628D02*
X19261905Y-35328628D01*
X20166667Y-34804819D02*
X20785714Y-34804819D01*
X20785714Y-34804819D02*
X20452381Y-35185771D01*
X20452381Y-35185771D02*
X20595238Y-35185771D01*
X20595238Y-35185771D02*
X20690476Y-35233390D01*
X20690476Y-35233390D02*
X20738095Y-35281009D01*
X20738095Y-35281009D02*
X20785714Y-35376247D01*
X20785714Y-35376247D02*
X20785714Y-35614342D01*
X20785714Y-35614342D02*
X20738095Y-35709580D01*
X20738095Y-35709580D02*
X20690476Y-35757200D01*
X20690476Y-35757200D02*
X20595238Y-35804819D01*
X20595238Y-35804819D02*
X20309524Y-35804819D01*
X20309524Y-35804819D02*
X20214286Y-35757200D01*
X20214286Y-35757200D02*
X20166667Y-35709580D01*
X19774405Y-28134819D02*
X19774405Y-27134819D01*
X19774405Y-27134819D02*
X20012500Y-27134819D01*
X20012500Y-27134819D02*
X20155357Y-27182438D01*
X20155357Y-27182438D02*
X20250595Y-27277676D01*
X20250595Y-27277676D02*
X20298214Y-27372914D01*
X20298214Y-27372914D02*
X20345833Y-27563390D01*
X20345833Y-27563390D02*
X20345833Y-27706247D01*
X20345833Y-27706247D02*
X20298214Y-27896723D01*
X20298214Y-27896723D02*
X20250595Y-27991961D01*
X20250595Y-27991961D02*
X20155357Y-28087200D01*
X20155357Y-28087200D02*
X20012500Y-28134819D01*
X20012500Y-28134819D02*
X19774405Y-28134819D01*
X21298214Y-28134819D02*
X20726786Y-28134819D01*
X21012500Y-28134819D02*
X21012500Y-27134819D01*
X21012500Y-27134819D02*
X20917262Y-27277676D01*
X20917262Y-27277676D02*
X20822024Y-27372914D01*
X20822024Y-27372914D02*
X20726786Y-27420533D01*
X18986666Y-16774819D02*
X18653333Y-16298628D01*
X18415238Y-16774819D02*
X18415238Y-15774819D01*
X18415238Y-15774819D02*
X18796190Y-15774819D01*
X18796190Y-15774819D02*
X18891428Y-15822438D01*
X18891428Y-15822438D02*
X18939047Y-15870057D01*
X18939047Y-15870057D02*
X18986666Y-15965295D01*
X18986666Y-15965295D02*
X18986666Y-16108152D01*
X18986666Y-16108152D02*
X18939047Y-16203390D01*
X18939047Y-16203390D02*
X18891428Y-16251009D01*
X18891428Y-16251009D02*
X18796190Y-16298628D01*
X18796190Y-16298628D02*
X18415238Y-16298628D01*
X19415238Y-16251009D02*
X19748571Y-16251009D01*
X19891428Y-16774819D02*
X19415238Y-16774819D01*
X19415238Y-16774819D02*
X19415238Y-15774819D01*
X19415238Y-15774819D02*
X19891428Y-15774819D01*
X20653333Y-16251009D02*
X20320000Y-16251009D01*
X20320000Y-16774819D02*
X20320000Y-15774819D01*
X20320000Y-15774819D02*
X20796190Y-15774819D01*
X21320000Y-15774819D02*
X21320000Y-16012914D01*
X21081905Y-15917676D02*
X21320000Y-16012914D01*
X21320000Y-16012914D02*
X21558095Y-15917676D01*
X21177143Y-16203390D02*
X21320000Y-16012914D01*
X21320000Y-16012914D02*
X21462857Y-16203390D01*
X22081905Y-15774819D02*
X22081905Y-16012914D01*
X21843810Y-15917676D02*
X22081905Y-16012914D01*
X22081905Y-16012914D02*
X22320000Y-15917676D01*
X21939048Y-16203390D02*
X22081905Y-16012914D01*
X22081905Y-16012914D02*
X22224762Y-16203390D01*
X56833333Y-30304819D02*
X56500000Y-29828628D01*
X56261905Y-30304819D02*
X56261905Y-29304819D01*
X56261905Y-29304819D02*
X56642857Y-29304819D01*
X56642857Y-29304819D02*
X56738095Y-29352438D01*
X56738095Y-29352438D02*
X56785714Y-29400057D01*
X56785714Y-29400057D02*
X56833333Y-29495295D01*
X56833333Y-29495295D02*
X56833333Y-29638152D01*
X56833333Y-29638152D02*
X56785714Y-29733390D01*
X56785714Y-29733390D02*
X56738095Y-29781009D01*
X56738095Y-29781009D02*
X56642857Y-29828628D01*
X56642857Y-29828628D02*
X56261905Y-29828628D01*
X57214286Y-29400057D02*
X57261905Y-29352438D01*
X57261905Y-29352438D02*
X57357143Y-29304819D01*
X57357143Y-29304819D02*
X57595238Y-29304819D01*
X57595238Y-29304819D02*
X57690476Y-29352438D01*
X57690476Y-29352438D02*
X57738095Y-29400057D01*
X57738095Y-29400057D02*
X57785714Y-29495295D01*
X57785714Y-29495295D02*
X57785714Y-29590533D01*
X57785714Y-29590533D02*
X57738095Y-29733390D01*
X57738095Y-29733390D02*
X57166667Y-30304819D01*
X57166667Y-30304819D02*
X57785714Y-30304819D01*
X56833333Y-23804819D02*
X56500000Y-23328628D01*
X56261905Y-23804819D02*
X56261905Y-22804819D01*
X56261905Y-22804819D02*
X56642857Y-22804819D01*
X56642857Y-22804819D02*
X56738095Y-22852438D01*
X56738095Y-22852438D02*
X56785714Y-22900057D01*
X56785714Y-22900057D02*
X56833333Y-22995295D01*
X56833333Y-22995295D02*
X56833333Y-23138152D01*
X56833333Y-23138152D02*
X56785714Y-23233390D01*
X56785714Y-23233390D02*
X56738095Y-23281009D01*
X56738095Y-23281009D02*
X56642857Y-23328628D01*
X56642857Y-23328628D02*
X56261905Y-23328628D01*
X57785714Y-23804819D02*
X57214286Y-23804819D01*
X57500000Y-23804819D02*
X57500000Y-22804819D01*
X57500000Y-22804819D02*
X57404762Y-22947676D01*
X57404762Y-22947676D02*
X57309524Y-23042914D01*
X57309524Y-23042914D02*
X57214286Y-23090533D01*
D11*
%TO.C,D2*%
X17552500Y-52135000D02*
X21612500Y-52135000D01*
X17552500Y-49865000D02*
X17552500Y-52135000D01*
X21612500Y-49865000D02*
X17552500Y-49865000D01*
%TO.C,U1*%
X39475000Y-45845000D02*
X41425000Y-45845000D01*
X39475000Y-45845000D02*
X36025000Y-45845000D01*
X39475000Y-50965000D02*
X37525000Y-50965000D01*
X39475000Y-50965000D02*
X41425000Y-50965000D01*
%TO.C,C1*%
X55077500Y-41435000D02*
X59162500Y-41435000D01*
X59162500Y-39565000D02*
X55077500Y-39565000D01*
X55077500Y-39565000D02*
X55077500Y-41435000D01*
%TO.C,C2*%
X50201248Y-47765000D02*
X50723752Y-47765000D01*
X50201248Y-49235000D02*
X50723752Y-49235000D01*
%TO.C,J1*%
X35427500Y-32570000D02*
X35427500Y-29150000D01*
X31857500Y-33570000D02*
X31857500Y-35770000D01*
X38357500Y-28570000D02*
X37137500Y-28570000D01*
X33567500Y-29150000D02*
X33567500Y-32570000D01*
X31857500Y-33570000D02*
X30637500Y-33570000D01*
X37137500Y-33570000D02*
X38357500Y-33570000D01*
X33567500Y-32570000D02*
X33247500Y-32570000D01*
X30637500Y-35770000D02*
X30637500Y-27350000D01*
X32927500Y-29150000D02*
X33247500Y-29070000D01*
X35427500Y-29150000D02*
X35747500Y-29070000D01*
X30637500Y-27350000D02*
X38357500Y-27350000D01*
X38357500Y-35770000D02*
X37137500Y-35770000D01*
X35747500Y-32570000D02*
X35427500Y-32570000D01*
X31857500Y-35770000D02*
X30637500Y-35770000D01*
X33247500Y-29070000D02*
X33567500Y-29150000D01*
X33547500Y-36260000D02*
X33247500Y-35660000D01*
X32927500Y-32570000D02*
X32927500Y-29150000D01*
X32947500Y-36260000D02*
X33547500Y-36260000D01*
X33247500Y-32570000D02*
X32927500Y-32570000D01*
X30637500Y-28570000D02*
X31857500Y-28570000D01*
X31857500Y-28570000D02*
X31857500Y-33570000D01*
X38357500Y-27350000D02*
X38357500Y-35770000D01*
X33247500Y-35660000D02*
X32947500Y-36260000D01*
X34417500Y-33570000D02*
X34577500Y-33570000D01*
X36067500Y-32570000D02*
X35747500Y-32570000D01*
X35747500Y-29070000D02*
X36067500Y-29150000D01*
X37137500Y-35770000D02*
X37137500Y-33570000D01*
X31857500Y-32570000D02*
X37137500Y-32570000D01*
X37137500Y-28570000D02*
X37137500Y-33570000D01*
X36067500Y-29150000D02*
X36067500Y-32570000D01*
%TO.C,R4*%
X19772936Y-42265000D02*
X20227064Y-42265000D01*
X19772936Y-43735000D02*
X20227064Y-43735000D01*
%TO.C,R3*%
X19772936Y-37735000D02*
X20227064Y-37735000D01*
X19772936Y-36265000D02*
X20227064Y-36265000D01*
%TO.C,D1*%
X18052500Y-30635000D02*
X22112500Y-30635000D01*
X18052500Y-28365000D02*
X18052500Y-30635000D01*
X22112500Y-28365000D02*
X18052500Y-28365000D01*
%TO.C,R2*%
X56772936Y-32235000D02*
X57227064Y-32235000D01*
X56772936Y-30765000D02*
X57227064Y-30765000D01*
%TO.C,R1*%
X56772936Y-25735000D02*
X57227064Y-25735000D01*
X56772936Y-24265000D02*
X57227064Y-24265000D01*
%TD*%
M02*
