%TF.GenerationSoftware,KiCad,Pcbnew,7.0.8*%
%TF.CreationDate,2023-10-16T22:27:31-07:00*%
%TF.ProjectId,Lab2,4c616232-2e6b-4696-9361-645f70636258,rev?*%
%TF.SameCoordinates,Original*%
%TF.FileFunction,Copper,L1,Top*%
%TF.FilePolarity,Positive*%
%FSLAX46Y46*%
G04 Gerber Fmt 4.6, Leading zero omitted, Abs format (unit mm)*
G04 Created by KiCad (PCBNEW 7.0.8) date 2023-10-16 22:27:31*
%MOMM*%
%LPD*%
G01*
G04 APERTURE LIST*
G04 Aperture macros list*
%AMRoundRect*
0 Rectangle with rounded corners*
0 $1 Rounding radius*
0 $2 $3 $4 $5 $6 $7 $8 $9 X,Y pos of 4 corners*
0 Add a 4 corners polygon primitive as box body*
4,1,4,$2,$3,$4,$5,$6,$7,$8,$9,$2,$3,0*
0 Add four circle primitives for the rounded corners*
1,1,$1+$1,$2,$3*
1,1,$1+$1,$4,$5*
1,1,$1+$1,$6,$7*
1,1,$1+$1,$8,$9*
0 Add four rect primitives between the rounded corners*
20,1,$1+$1,$2,$3,$4,$5,0*
20,1,$1+$1,$4,$5,$6,$7,0*
20,1,$1+$1,$6,$7,$8,$9,0*
20,1,$1+$1,$8,$9,$2,$3,0*%
G04 Aperture macros list end*
%TA.AperFunction,SMDPad,CuDef*%
%ADD10RoundRect,0.250001X-0.462499X-0.624999X0.462499X-0.624999X0.462499X0.624999X-0.462499X0.624999X0*%
%TD*%
%TA.AperFunction,SMDPad,CuDef*%
%ADD11RoundRect,0.150000X-0.825000X-0.150000X0.825000X-0.150000X0.825000X0.150000X-0.825000X0.150000X0*%
%TD*%
%TA.AperFunction,SMDPad,CuDef*%
%ADD12R,2.290000X3.000000*%
%TD*%
%TA.AperFunction,SMDPad,CuDef*%
%ADD13RoundRect,0.250000X-0.537500X-0.425000X0.537500X-0.425000X0.537500X0.425000X-0.537500X0.425000X0*%
%TD*%
%TA.AperFunction,SMDPad,CuDef*%
%ADD14RoundRect,0.250000X-0.337500X-0.475000X0.337500X-0.475000X0.337500X0.475000X-0.337500X0.475000X0*%
%TD*%
%TA.AperFunction,ComponentPad*%
%ADD15O,1.700000X2.000000*%
%TD*%
%TA.AperFunction,ComponentPad*%
%ADD16RoundRect,0.250000X-0.600000X-0.750000X0.600000X-0.750000X0.600000X0.750000X-0.600000X0.750000X0*%
%TD*%
%TA.AperFunction,SMDPad,CuDef*%
%ADD17RoundRect,0.250000X-0.350000X-0.450000X0.350000X-0.450000X0.350000X0.450000X-0.350000X0.450000X0*%
%TD*%
%TA.AperFunction,ViaPad*%
%ADD18C,0.800000*%
%TD*%
%TA.AperFunction,Conductor*%
%ADD19C,0.254000*%
%TD*%
%TA.AperFunction,Conductor*%
%ADD20C,0.508000*%
%TD*%
%TA.AperFunction,Conductor*%
%ADD21C,0.250000*%
%TD*%
G04 APERTURE END LIST*
D10*
%TO.P,D2,1,K*%
%TO.N,GND*%
X18525000Y-51000000D03*
%TO.P,D2,2,A*%
%TO.N,Net-(D2-A)*%
X21500000Y-51000000D03*
%TD*%
D11*
%TO.P,U1,1,GND*%
%TO.N,GND*%
X37000000Y-46500000D03*
%TO.P,U1,2,TR*%
%TO.N,/pin_2*%
X37000000Y-47770000D03*
%TO.P,U1,3,Q*%
%TO.N,/pin_3*%
X37000000Y-49040000D03*
%TO.P,U1,4,R*%
%TO.N,+9V*%
X37000000Y-50310000D03*
%TO.P,U1,5,CV*%
%TO.N,Net-(U1-CV)*%
X41950000Y-50310000D03*
%TO.P,U1,6,THR*%
%TO.N,/pin_2*%
X41950000Y-49040000D03*
%TO.P,U1,7,DIS*%
%TO.N,/pin_7*%
X41950000Y-47770000D03*
%TO.P,U1,8,VCC*%
%TO.N,+9V*%
X41950000Y-46500000D03*
D12*
%TO.P,U1,9*%
%TO.N,N/C*%
X39475000Y-48405000D03*
%TD*%
D13*
%TO.P,C1,2*%
%TO.N,GND*%
X59000000Y-40500000D03*
%TO.P,C1,1*%
%TO.N,/pin_2*%
X56125000Y-40500000D03*
%TD*%
D14*
%TO.P,C2,1*%
%TO.N,Net-(U1-CV)*%
X49425000Y-48500000D03*
%TO.P,C2,2*%
%TO.N,GND*%
X51500000Y-48500000D03*
%TD*%
D15*
%TO.P,J1,2,Pin_2*%
%TO.N,GND*%
X35747500Y-34160000D03*
D16*
%TO.P,J1,1,Pin_1*%
%TO.N,+9V*%
X33247500Y-34160000D03*
%TD*%
D17*
%TO.P,R4,1*%
%TO.N,/pin_3*%
X19000000Y-43000000D03*
%TO.P,R4,2*%
%TO.N,Net-(D2-A)*%
X21000000Y-43000000D03*
%TD*%
%TO.P,R3,2*%
%TO.N,/pin_3*%
X21000000Y-37000000D03*
%TO.P,R3,1*%
%TO.N,Net-(D1-K)*%
X19000000Y-37000000D03*
%TD*%
D10*
%TO.P,D1,1,K*%
%TO.N,Net-(D1-K)*%
X19025000Y-29500000D03*
%TO.P,D1,2,A*%
%TO.N,+9V*%
X22000000Y-29500000D03*
%TD*%
D17*
%TO.P,R2,2*%
%TO.N,/pin_2*%
X58000000Y-31500000D03*
%TO.P,R2,1*%
%TO.N,/pin_7*%
X56000000Y-31500000D03*
%TD*%
%TO.P,R1,2*%
%TO.N,/pin_7*%
X58000000Y-25000000D03*
%TO.P,R1,1*%
%TO.N,+9V*%
X56000000Y-25000000D03*
%TD*%
D18*
%TO.N,GND*%
X18525000Y-51000000D03*
X41000000Y-42000000D03*
X34500000Y-46500000D03*
%TO.N,/pin_3*%
X32000000Y-49000000D03*
X37000000Y-49000000D03*
%TO.N,/pin_7*%
X51500000Y-30500000D03*
X51500000Y-39500000D03*
%TO.N,/pin_2*%
X41950000Y-49040000D03*
X37000000Y-47770000D03*
X54500000Y-38500000D03*
%TD*%
D19*
%TO.N,GND*%
X54500000Y-45500000D02*
X51500000Y-48500000D01*
X48500000Y-34500000D02*
X41000000Y-42000000D01*
X59000000Y-41000000D02*
X54500000Y-45500000D01*
X54500000Y-45500000D02*
X54500000Y-40500000D01*
X59000000Y-40500000D02*
X59000000Y-41000000D01*
X54500000Y-40500000D02*
X48500000Y-34500000D01*
D20*
X34500000Y-46500000D02*
X37000000Y-46500000D01*
D19*
%TO.N,/pin_3*%
X24000000Y-41000000D02*
X32000000Y-49000000D01*
X23000000Y-41000000D02*
X24000000Y-41000000D01*
%TO.N,Net-(U1-CV)*%
X48000000Y-48500000D02*
X46000000Y-50500000D01*
X49425000Y-48500000D02*
X48000000Y-48500000D01*
X46000000Y-50500000D02*
X42140000Y-50500000D01*
X42140000Y-50500000D02*
X41950000Y-50310000D01*
D20*
%TO.N,+9V*%
X22000000Y-29500000D02*
X28587500Y-29500000D01*
X28587500Y-29500000D02*
X33247500Y-34160000D01*
D21*
%TO.N,/pin_3*%
X21000000Y-41000000D02*
X23000000Y-41000000D01*
%TO.N,/pin_7*%
X51500000Y-30500000D02*
X52500000Y-29500000D01*
X41950000Y-47770000D02*
X43230000Y-47770000D01*
X43230000Y-47770000D02*
X51500000Y-39500000D01*
X52500000Y-29500000D02*
X58000000Y-29500000D01*
%TO.N,/pin_2*%
X58000000Y-38500000D02*
X54500000Y-38500000D01*
X58000000Y-31500000D02*
X58000000Y-38500000D01*
X58000000Y-38500000D02*
X58000000Y-38625000D01*
X58000000Y-38625000D02*
X56125000Y-40500000D01*
%TO.N,/pin_7*%
X58000000Y-25000000D02*
X58000000Y-27000000D01*
X58000000Y-27000000D02*
X58000000Y-29500000D01*
%TO.N,+9V*%
X37000000Y-50310000D02*
X36025000Y-50310000D01*
D20*
X36025000Y-50310000D02*
X33247500Y-47532500D01*
X33247500Y-47532500D02*
X33247500Y-34160000D01*
X41950000Y-46500000D02*
X33247500Y-37797500D01*
D21*
X33247500Y-37797500D02*
X33247500Y-34160000D01*
%TO.N,/pin_7*%
X58000000Y-29500000D02*
X56000000Y-31500000D01*
%TO.N,+9V*%
X56000000Y-25000000D02*
X42407500Y-25000000D01*
X42407500Y-25000000D02*
X33247500Y-34160000D01*
%TO.N,Net-(D2-A)*%
X21000000Y-43000000D02*
X21000000Y-50500000D01*
X21000000Y-50500000D02*
X21500000Y-51000000D01*
%TO.N,/pin_3*%
X21000000Y-37000000D02*
X21000000Y-41000000D01*
X21000000Y-41000000D02*
X19000000Y-43000000D01*
%TO.N,Net-(D1-K)*%
X19025000Y-29500000D02*
X19025000Y-36975000D01*
X19025000Y-36975000D02*
X19000000Y-37000000D01*
%TD*%
M02*
