%TF.GenerationSoftware,KiCad,Pcbnew,7.0.8*%
%TF.CreationDate,2023-10-16T22:27:31-07:00*%
%TF.ProjectId,Lab2,4c616232-2e6b-4696-9361-645f70636258,rev?*%
%TF.SameCoordinates,Original*%
%TF.FileFunction,Copper,L2,Bot*%
%TF.FilePolarity,Positive*%
%FSLAX46Y46*%
G04 Gerber Fmt 4.6, Leading zero omitted, Abs format (unit mm)*
G04 Created by KiCad (PCBNEW 7.0.8) date 2023-10-16 22:27:31*
%MOMM*%
%LPD*%
G01*
G04 APERTURE LIST*
G04 Aperture macros list*
%AMRoundRect*
0 Rectangle with rounded corners*
0 $1 Rounding radius*
0 $2 $3 $4 $5 $6 $7 $8 $9 X,Y pos of 4 corners*
0 Add a 4 corners polygon primitive as box body*
4,1,4,$2,$3,$4,$5,$6,$7,$8,$9,$2,$3,0*
0 Add four circle primitives for the rounded corners*
1,1,$1+$1,$2,$3*
1,1,$1+$1,$4,$5*
1,1,$1+$1,$6,$7*
1,1,$1+$1,$8,$9*
0 Add four rect primitives between the rounded corners*
20,1,$1+$1,$2,$3,$4,$5,0*
20,1,$1+$1,$4,$5,$6,$7,0*
20,1,$1+$1,$6,$7,$8,$9,0*
20,1,$1+$1,$8,$9,$2,$3,0*%
G04 Aperture macros list end*
%TA.AperFunction,ComponentPad*%
%ADD10O,1.700000X2.000000*%
%TD*%
%TA.AperFunction,ComponentPad*%
%ADD11RoundRect,0.250000X-0.600000X-0.750000X0.600000X-0.750000X0.600000X0.750000X-0.600000X0.750000X0*%
%TD*%
%TA.AperFunction,ViaPad*%
%ADD12C,0.800000*%
%TD*%
%TA.AperFunction,Conductor*%
%ADD13C,0.254000*%
%TD*%
%TA.AperFunction,Conductor*%
%ADD14C,0.508000*%
%TD*%
%TA.AperFunction,Conductor*%
%ADD15C,0.250000*%
%TD*%
G04 APERTURE END LIST*
D10*
%TO.P,J1,2,Pin_2*%
%TO.N,GND*%
X35747500Y-34160000D03*
D11*
%TO.P,J1,1,Pin_1*%
%TO.N,+9V*%
X33247500Y-34160000D03*
%TD*%
D12*
%TO.N,GND*%
X18525000Y-51000000D03*
X41000000Y-42000000D03*
X34500000Y-46500000D03*
%TO.N,/pin_3*%
X32000000Y-49000000D03*
X37000000Y-49000000D03*
%TO.N,/pin_7*%
X51500000Y-30500000D03*
X51500000Y-39500000D03*
%TO.N,/pin_2*%
X41950000Y-49040000D03*
X37000000Y-47770000D03*
X54500000Y-38500000D03*
%TD*%
D13*
%TO.N,GND*%
X28000000Y-53500000D02*
X21025000Y-53500000D01*
X21025000Y-53500000D02*
X18525000Y-51000000D01*
X36500000Y-46500000D02*
X34500000Y-46500000D01*
X41000000Y-42000000D02*
X36500000Y-46500000D01*
D14*
X34500000Y-46500000D02*
X34500000Y-35407500D01*
X34500000Y-35407500D02*
X35747500Y-34160000D01*
X28500000Y-46500000D02*
X34500000Y-46500000D01*
X28000000Y-47000000D02*
X28500000Y-46500000D01*
X28000000Y-53500000D02*
X28000000Y-47000000D01*
D13*
%TO.N,/pin_3*%
X32000000Y-49000000D02*
X37000000Y-49000000D01*
D15*
%TO.N,/pin_7*%
X51500000Y-39500000D02*
X51500000Y-30500000D01*
%TO.N,/pin_2*%
X54500000Y-38500000D02*
X43960000Y-49040000D01*
X43960000Y-49040000D02*
X41950000Y-49040000D01*
X54500000Y-38500000D02*
X45230000Y-47770000D01*
X45230000Y-47770000D02*
X37000000Y-47770000D01*
%TD*%
M02*
